<?xml version="1.0" encoding="utf-8"?>
<!-- Generator: Adobe Illustrator 18.1.1, SVG Export Plug-In . SVG Version: 6.00 Build 0)  -->
<svg version="1.1" id="Layer_1" xmlns="http://www.w3.org/2000/svg" xmlns:xlink="http://www.w3.org/1999/xlink" x="0px" y="0px"
	 viewBox="0 0 26.1 20.8" enable-background="new 0 0 26.1 20.8" xml:space="preserve">
<g>
	<path fill="#EE5B9F" d="M25.3,2.5c-0.1,0-0.2,0.1-0.4,0.1H1.4c-0.1,0-0.2-0.1-0.4-0.1l12.1,8.4L25.3,2.5z"/>
	<path fill="#EE5B9F" d="M-0.1,3.4C-0.2,3.6,0,3.7,0,3.9v12.6c0,0.1-0.2,0.2-0.2,0.3l8.3-7.7L-0.1,3.4z"/>
	<path fill="#EE5B9F" d="M13.8,12.4c-0.2,0.1-0.4,0.2-0.6,0.2s-0.5-0.1-0.6-0.2l-3.2-2.2l-8.5,7.6c0.2,0,0.4-0.1,0.6-0.1h23.5
		c0.2,0,0.4,0.2,0.6,0.1L17,10.1L13.8,12.4z"/>
	<path fill="#EE5B9F" d="M18.5,9.2l7.9,7.7c0-0.1-0.4-0.2-0.4-0.3V3.9c0-0.2,0.4-0.3,0.3-0.5L18.5,9.2z"/>
</g>
</svg>
