<?xml version="1.0" encoding="utf-8"?>
<!-- Generator: Adobe Illustrator 18.1.1, SVG Export Plug-In . SVG Version: 6.00 Build 0)  -->
<svg version="1.1" id="Layer_1" xmlns="http://www.w3.org/2000/svg" xmlns:xlink="http://www.w3.org/1999/xlink" x="0px" y="0px"
	 viewBox="0 0 253.5 244.5" enable-background="new 0 0 253.5 244.5" xml:space="preserve">
<path fill="#EE5B9F" d="M124.8,8C61.3,8,9.8,59.5,9.8,123s51.5,115,115,115c63.5,0,115-51.5,115-115S188.4,8,124.8,8z M170,169.8
	c-13.4,2.8-21.1,2-22.4-2.8c-1.2-4.1,3.7-13.4,14.6-28c11.8-15.9,18.3-26.8,19.5-32.5c1.2-5.7,0.4-9.8-1.6-11.8
	c-3.3-2.8-8.5-2-15.9,2.4c-8.5,5.3-17.1,15-25.6,28.5l-19.5,33.7c-3.3,5.3-5.7,8.5-7.3,9.8c-2.8,2-6.9,2.4-12.2,2
	c-2-0.4-3.3-0.8-3.7-1.2c-0.8-1.6-0.4-4.1,1.2-6.9c6.9-12.2,15-26,24.8-41.5c2.8-6.9,4.9-12.2,5.3-15c1.2-5.7,0.4-9.8-2-11.8
	c-3.7-3.3-10.2-1.6-19.5,4.9c-6.9,5.3-12.6,10.6-16.3,15.9c-2.4,3.3-4.5,6.5-6.5,10.2c-2,2.8-5.3,8.5-10.2,16.7l-6.1,9.8l-4.1,7.3
	c-6.1,9.3-7.7,13-19.5,11.4c-2,0-3.3-0.4-3.7-1.2c-0.8-1.2-0.4-3.3,1.2-6.5l15.9-26.8l1.6-2.8L72,110.1
	c10.2-17.5,17.1-28.4,20.7-32.5c2.4-2.8,6.5-3.7,12.2-2.4c3.7,0.4,5.3,2,4.9,4.5c-0.4,2-2,5.3-4.9,10.2c1.6-1.2,4.1-3.3,7.7-5.7
	c8.9-6.1,17.1-8.9,24.4-8.9c10.2,0,15,6.5,15,19.5c13.8-13.4,26.4-19.9,37.8-19.9c11,0,16.3,6.5,15.9,19.5
	c-0.4,8.5-4.1,19.1-11.8,31.3c-2.4,4.1-6.9,10.6-13.8,19.9c-2.8,4.1-4.5,6.9-4.5,8.1c0,0.4,0.4,0.8,1.2,0.8c0.8,0,2.4-0.4,4.5-1.6
	c4.9-2,17.9-9.8,22.8-12.6c4.5-1.2,6.5,0,6.5,4.1c0,1.2-0.8,3.3-2.8,6.5C202.5,155.2,189.9,161.7,170,169.8z"/>
</svg>
