<?xml version="1.0" encoding="utf-8"?>
<!-- Generator: Adobe Illustrator 18.1.1, SVG Export Plug-In . SVG Version: 6.00 Build 0)  -->
<svg version="1.1" id="Layer_1" xmlns="http://www.w3.org/2000/svg" xmlns:xlink="http://www.w3.org/1999/xlink" x="0px" y="0px"
	 viewBox="0 0 307.3 356.7" enable-background="new 0 0 307.3 356.7" xml:space="preserve">
<g>
	<circle fill="#F9F9FA" cx="153.9" cy="155.3" r="148.9"/>
	<path fill-rule="evenodd" clip-rule="evenodd" fill="#422F25" d="M159.1,125.1c0,0-1.3,7.4-3.9,18.8
		c-28.8,71.3-15.9,219-124.5,209.3c77.8-40.9,28.9-124.5,38.2-186.6c0.6-5.9,1.6-11.8,3.2-17.6c1.6-4.1,3.5-7.9,5.9-11.3
		c4.7-6.8,11.2-12.2,20-15.3C145.1,105.8,159.1,125.1,159.1,125.1z"/>
	<path fill-rule="evenodd" clip-rule="evenodd" fill="#231F20" d="M85,199c0.3,3,10.3,35.5,10.6,38.6c0.4,3,0.8,6.1,1.2,9.2
		c1.1,2.4,2,4.9,2.7,7.3c0.7,2.5,1.3,4.9,1.6,7.4c3.5,24.3-27.6,75-66.6,89.6c23.9,2.4,82.4-40.8,87.9-63.8c1-2.2,2.2-10.8,3.1-13
		c1.3-2,3.2-4,4.9-6.2c1.7-2.1,3.1-4.4,3.5-7.1c0.8-5.2-3.9-16.2-6.5-21.1c-3-5.7-32.7-60.2-37.9-46.7"/>
	<path fill-rule="evenodd" clip-rule="evenodd" fill="#231F20" d="M76.7,180.3c0.7,2.9,2.3,49.5,2.9,52.5c0.6,3,3.2,6.1,3.8,9.1
		c-0.2,2.7-2.3,5.3-2.2,7.8c0.1,2.6,5.9,11.4,6.6,13.8c13.1,45.3-3.1,25.7-29.5,69.1c-7.2-42,22.3-30,9.6-50
		c-1.7-1.8-3.3-3.6-4.8-5.4c-1.9-1.5-4.4-2.7-6.6-4.2c-2.3-1.5-4.4-3.2-5.6-5.6c-2.4-4.7-1.6-16.6-0.8-22.1
		c1-6.3,11.2-67.6,20.6-56.5"/>
	<path fill="#B07B54" d="M190.4,279c-0.5,9.5,16.6,13.5,15.1,16c-1.5,2.5-30.3,9.8-44,10c-13.7,0.2-38.9-0.1-45.7-4.5
		c-2.3-1.5,5.6-10.4,5.3-21.4s-5.3-35.9-5.3-35.9h79C194.9,243.1,190.9,269.5,190.4,279z"/>
	<path fill="#BE8C63" d="M236.6,161.8c0,7.5-12.2,30.2-13.8,37.2c-4.4,19.5-15.1,31.5-28.7,48.7c-9.9,12.6-21.9,25.8-36,25.8
		c-17.6,0-34.5-9.7-46.5-26.7c-7.8-11-16.8-25.5-19.3-41.9C91.6,200,80,170,80,164.8c0-8.3,10.2-0.4,9.9-8.8
		c-2.2-61.9,30.8-88.1,67-88.1c33.3,0,70.5,26.6,70.5,83.9C227.4,163.6,236.6,150.2,236.6,161.8z"/>
	<path fill="none" stroke="#231F20" stroke-width="0.6209" stroke-miterlimit="10" d="M142.1,199.2c0,5.2,24,9.9,32.3-0.2"/>
	<polygon fill="#FFFFFF" points="134.2,228.2 136.5,230.6 160.1,245.8 183.7,229.9 183.7,224.8 	"/>
	<path fill="#231F20" d="M116.1,153c6.7-1,11.9,2.6,12.9,8c-7.6-4.3-19.5-1.5-26.5,2.3C105.1,158.4,109.2,154.1,116.1,153z"/>
	<path fill="#231F20" d="M196.6,153c-6.7-1-11.9,2.6-12.9,8c7.6-4.3,19.5-1.5,26.5,2.3C207.6,158.4,203.5,154.1,196.6,153z"/>
	
		<ellipse transform="matrix(0.9911 -0.1333 0.1333 0.9911 -23.3734 17.5374)" fill="#B07B54" cx="119.3" cy="183.3" rx="21.4" ry="12.6"/>
	
		<ellipse transform="matrix(0.9681 0.2506 -0.2506 0.9681 52.1301 -42.8105)" fill="#B07B54" cx="194.2" cy="183.3" rx="21.4" ry="12.6"/>
	<g>
		<path fill="#422F25" d="M176.7,136.1c9.2,0.2,24.2-17.4,34.7-6.9c1.3,1.3,10.5,7.3,9.1,5.6c-12.9-15.8-14.6-19.4-44.1-5.4
			C174.9,130.1,175.3,137.4,176.7,136.1L176.7,136.1z"/>
	</g>
	<g>
		<path fill="#422F25" d="M138.4,133.4c-9,1.7-26.7-13.2-35.3-1.1c-1.1,1.5-9.1,8.9-8,7c10.2-17.7,11.2-21.5,42.7-12.6
			C139.2,127.2,140,134.5,138.4,133.4L138.4,133.4z"/>
	</g>
	<g>
		<g>
			<path fill="#231F20" d="M79.8,149.5L79.8,149.5c-9.7-20.8-3.9-74.4,32.5-98.4c18.6-12.3,34.1-13.9,59.5-13.9
				c41.5,4.3,54.6,25.6,57,30.5c17.7,36.7,11.5,85.1,11.5,85.1c-5.7,13.6-6.5,26.1-1.1,42.9c5,13.8,9.8,24.7,5.6,39.9
				c-3.1,13.1-26.6,21.5-28.2,36.2c-0.6-10.5,16.2-16.8,20.1-24.1c7-11.8,7-24.3-0.1-36.2c-8.9-15.3-12.7-21.4-7.9-39.4
				c3.5-13-1.9-35.4-2.6-36.8c0-0.1-10.9-25.3-14.7-38.8c-1-3.6-15.3-16.3-18.8-14.7c-77.2,34.8-88.4,61.8-88.4,61.8
				C85.9,160.3,93,186.6,88.3,201c-9.1,27.4,28,53.3,3,78c20.5-27.9-11.3-42.4-11.1-69.7c0.5-13.3,1.4-24.6-0.6-37.4
				C78.3,157.7,78.3,157.7,79.8,149.5z"/>
		</g>
	</g>
	<path fill="#BB5F41" d="M159.1,224.8c0,0-4.7-4.5-8.7-2.4c-3.3,1.7-15,6.8-21.4,1.7c-5.8-4.6-1.1,5.3,3.4,5.3s25.4,1.2,28.7,1.2
		c3.3,0,21.2-2.9,23.7-3.4c3.8-0.8,5.1-9.6-1.1-4.3c-3.7,3.2-8.7-0.6-16.9-1.7C162.7,220.7,164.1,224.8,159.1,224.8z"/>
	<path fill="#BB5F41" d="M180.4,235.3c-4.1,6.5-3.5,6.3-10,10.5s-14.9,4-21.5,0c-1.7-1-5.4-4.8-8.4-7.9c-3.3-3.5-5.5-6.7-7.9-9.3
		c6.1,2.5,12.1,5.3,17.9,8.3c4.5,2.3,2.7,2.1,8.5,2.7c3,0.3,11.3-1.1,13.7-2.9c4.5-3.4,8.6-7.2,12.5-11.2
		C186.2,228.8,182.2,232.4,180.4,235.3z"/>
	<g>
		<g>
			<path fill="#B07B54" d="M123.3,215.3c-3.5,3.9-4.9,9-3.7,14.1c0.2,0.9,3.1,0.2,2.9-0.8c-1.1-4.8,0.1-9.6,3.5-13.3
				C126.8,214.4,123.9,214.6,123.3,215.3L123.3,215.3z"/>
		</g>
	</g>
	<g>
		<path fill-rule="evenodd" clip-rule="evenodd" fill="#231F20" d="M130.2,118c-37.9,29.8-65.2,72.8-76,119.8
			c-9.3-13.6-8.5-31.5-6.4-47.8c3-23.4,7.8-46.5,14.4-69.1c4.3-14.9,9.6-29.9,19.1-42.3C97.7,57.2,126.5,46.1,153,51
			c-7.5,7.7-12.9,13.9-20.9,21.2c-22.3,20.2-45.3,36.8-54,65.6c6.1-4,6.6-8.2,11.8-13.2c5.8-5.6,14-7.8,21.8-9.8
			C117.8,113.1,123.9,117.2,130.2,118z"/>
	</g>
	<path fill-rule="evenodd" clip-rule="evenodd" fill="#604232" d="M209.9,78.9C170.4,62,134,106.1,87.8,130.2
		c39-16.9,81.6-86.9,122.5-53.2"/>
	<g>
		<path fill-rule="evenodd" clip-rule="evenodd" fill="#422F25" d="M71.9,219.7c-0.8,10.5-9.2,19.2-10.2,29.6
			c-0.8,8.7,3.6,16.9,7.9,24.5c-1-12.3,0.1-24.8,3.4-36.7c1.7-6.4,4.1-13.3,1.5-19.4"/>
	</g>
	<path fill-rule="evenodd" clip-rule="evenodd" fill="#422F25" d="M70.8,190.2c-3,8.7-9.8,15.8-12,24.7c-1.5,6.1-0.8,12.4-1.4,18.6
		c0.8-8.2,3.4-16.3,7.7-23.3c1.3-2.1,2.7-4,3.7-6.2C70.9,199.8,71.6,194.9,70.8,190.2z"/>
	<path fill-rule="evenodd" clip-rule="evenodd" fill="#3C2A42" d="M79.7,139.7l0.6,9c0,0,3.8-1.3,5.7,10.5
		c1.9,11.9,3.6,28.4,30.9,28.8c27.3,0.3,32.9-24.5,34.4-28.1c1.5-3.6,1.9-6.2,3.6-7c2.1-1,3.9-1,6,0c1.7,0.8,2.1,3.4,3.6,7
		c1.5,3.6,7.2,28.4,34.5,28c27.3-0.4,29-17,30.8-28.9c1.9-11.9,5.6-10.6,5.6-10.6l0.5-9c-20.2-4.7-45.8-4.4-58.6-0.5
		c-4.8,1.5-8.8,2.6-11.8,3.3c-6.9,1.7-8.6,1.7-15.5,0c-3.1-0.7-7-1.8-11.8-3.3C125.4,135.1,99.8,135,79.7,139.7L79.7,139.7z
		 M104.4,142.7c-5.6,1.2-12.1,2.2-13.1,8.1c-1.3,7.6,1.4,16.4,2.8,22.3c2.3,9.6,11.9,11.5,21.5,11.8c10,0.3,22.6-3.4,28.1-20.4
		c3.9-12.2-1.6-16.4-7.9-19.3C127.9,141.5,112.9,140.9,104.4,142.7L104.4,142.7z M213.3,141.6c5.6,1.2,10.1,3.1,11,8.9
		c1.1,6.7-0.9,18.1-2.7,22.3c-3.8,9.2-11.8,11.5-21.4,11.9c-10,0.4-22.6-3.3-28.2-20.3c-4-12.2,0.9-16.6,7.2-19.5
		C187.1,141.3,204.8,139.8,213.3,141.6L213.3,141.6z M90.8,143.6"/>
	<g opacity="0.24">
		<path fill-rule="evenodd" clip-rule="evenodd" fill="#BBC1BA" d="M98.2,163.8c2.7,0.4,5.3,1.4,7.9,2.3c3.9,1.4,7.9,2.7,11.8,4.1
			c-3.7,0.2-7.5,0.3-11.1-0.6c-3.6-0.9-7.1-3-9-6.2"/>
	</g>
</g>
</svg>
